<svg width="41" height="40" viewBox="0 0 41 40" fill="none" xmlns="http://www.w3.org/2000/svg"><path d="M20.5 12.4003C18.0988 12.4003 16.587 11.9483 14.4131 11.4954C12.2392 11.0425 11.3461 11.4154 10.0652 12.401C10.0652 12.401 7.45654 14.2115 7.45654 17.8326C7.45654 23.2642 11.8044 25.98 11.8044 25.98C17.0218 29.601 23.9783 29.601 29.1957 25.98C29.1957 25.98 33.5435 23.2642 33.5435 17.8326C33.5435 14.2115 30.9348 12.401 30.9348 12.401C29.4518 11.2717 28.4795 11.118 26.587 11.4951C24.6945 11.8722 22.9013 12.4003 20.5 12.4003Z" fill="#9E2E2E"/><path d="M13.5435 26.6828C14.3412 26.9492 15.1579 27.0824 15.9765 27.0904H25.0577C25.8657 27.0811 26.6704 26.9443 27.4565 26.6828C26.8971 24.7421 25.9359 23.0797 24.6964 21.909C23.4568 20.7383 21.9955 20.1128 20.5 20.1128C19.0045 20.1128 17.5431 20.7383 16.3036 21.909C15.064 23.0797 14.1028 24.7421 13.5435 26.6828Z" fill="#E34545"/><path d="M20.616 15.2886C16.3543 15.2886 13.3572 14.8619 11.6984 14.5387C10.947 14.3923 10.4288 13.7217 10.4288 12.9224V10.7984H30.5712V12.9545C30.5712 13.7412 30.0694 14.3993 29.3351 14.5472C27.7374 14.8688 24.8429 15.2886 20.616 15.2886Z" fill="#FFFCFC" stroke="#FFFCFC" stroke-width="0.727178"/><path d="M20.413 25.5809C23.3348 25.5809 25.46 25.8789 26.7464 26.1348C27.4692 26.2785 27.9625 26.9292 27.9625 27.7084L27.9625 29.2016L13.0375 29.2016L13.0375 27.6743C13.0375 26.9091 13.5146 26.2717 14.2192 26.1275C15.4591 25.8737 17.5168 25.5809 20.413 25.5809Z" fill="#FFFCFC" stroke="#FFFCFC" stroke-width="0.727178"/><path d="M10.7912 27.3954C10.8096 27.4077 10.8256 27.4182 10.8391 27.4269C16.641 31.4375 24.359 31.4375 30.1609 27.4269C30.1744 27.4182 30.1904 27.4077 30.2088 27.3954C30.2555 27.3643 30.3176 27.3219 30.3929 27.2681C30.5435 27.1606 30.7479 27.0071 30.988 26.8071C31.4666 26.4085 32.097 25.8174 32.7273 25.0299C33.9908 23.4515 35.2826 21.043 35.2826 17.8326C35.2826 15.5796 34.4654 13.8738 33.6502 12.7423C33.2448 12.1796 32.8374 11.7544 32.5236 11.464C32.3661 11.3183 32.2304 11.2048 32.1276 11.1233C32.0762 11.0825 32.0328 11.0496 31.9989 11.0244C31.9872 11.0158 31.9766 11.0081 31.9672 11.0013C31.1191 10.3582 30.2676 9.87935 29.2542 9.67751C28.2549 9.47848 27.2725 9.58516 26.2472 9.78947C25.8001 9.87856 25.3777 9.97038 24.9678 10.0595C23.504 10.3777 22.1999 10.6612 20.5 10.6612C18.7411 10.6612 17.5711 10.404 15.9748 10.0531C15.6003 9.9708 15.2023 9.88332 14.7678 9.7928C13.5552 9.54017 12.5004 9.47318 11.4921 9.71916C10.4909 9.96339 9.72082 10.4734 9.02828 11.0045C9.02005 11.0105 9.011 11.0172 9.00116 11.0244C8.96722 11.0496 8.92384 11.0825 8.87239 11.1233C8.76964 11.2048 8.6339 11.3183 8.47643 11.464C8.16264 11.7544 7.75524 12.1796 7.34981 12.7423C6.53468 13.8738 5.71741 15.5796 5.71741 17.8326C5.71741 21.043 7.00928 23.4515 8.27274 25.0299C8.90306 25.8174 9.53349 26.4085 10.012 26.8071C10.2522 27.0071 10.4565 27.1606 10.6071 27.2681C10.6825 27.3219 10.7446 27.3643 10.7912 27.3954Z" stroke="#DF9178" stroke-width="3.47826"/></svg>