<svg xmlns="http://www.w3.org/2000/svg" xmlns:xlink="http://www.w3.org/1999/xlink" width="64" zoomAndPan="magnify" viewBox="0 0 48 48" height="64" preserveAspectRatio="xMidYMid meet" version="1.0"><defs><clipPath id="c02358f4c9"><path d="M 1.222656 0 L 46.777344 0 L 46.777344 47.019531 L 1.222656 47.019531 Z M 1.222656 0 " clip-rule="nonzero"/></clipPath></defs><g clip-path="url(#c02358f4c9)"><path fill="#7cff00" d="M 41.921875 33.539062 C 43.457031 34.179688 44.988281 34.824219 46.757812 35.5625 C 45.785156 33.300781 44.984375 31.113281 43.925781 29.0625 C 42.851562 26.992188 41.519531 25.054688 40.28125 23.019531 C 40.84375 22.59375 41.5625 22.121094 42.195312 21.554688 C 44.550781 19.453125 45.480469 16.664062 45.871094 13.644531 C 46.394531 9.601562 45.945312 5.695312 44.128906 2 C 43.90625 1.542969 43.640625 1.113281 43.390625 0.675781 C 43.285156 0.5 43.15625 0.335938 42.933594 0 C 41.679688 2.976562 40.191406 5.667969 37.632812 7.878906 C 37.632812 7.300781 37.632812 6.945312 37.632812 6.4375 C 35.558594 7.871094 35.09375 10.21875 33.78125 12 C 36.003906 11.269531 37.976562 10.136719 39.855469 8.671875 C 39.691406 8.941406 39.558594 9.242188 39.359375 9.484375 C 38.089844 11.023438 36.859375 12.59375 35.519531 14.066406 C 34.121094 15.597656 33.523438 17.269531 34.152344 19.296875 C 34.183594 19.398438 34.15625 19.519531 34.15625 19.773438 C 32.625 18.699219 32.472656 17.164062 32.316406 15.472656 C 31.167969 16.039062 30.4375 16.921875 29.964844 17.957031 C 29.503906 18.96875 29.226562 20.070312 28.828125 21.246094 C 28.636719 20.582031 28.46875 19.976562 28.296875 19.382812 C 27.476562 20.160156 27.054688 21.921875 27.550781 23.324219 C 27.871094 24.230469 28.429688 25.058594 28.929688 25.890625 C 29.265625 26.449219 29.734375 26.929688 30.046875 27.5 C 30.464844 28.261719 30.464844 29.066406 29.839844 29.738281 C 28.453125 31.226562 28.296875 33 28.578125 35.15625 C 30.125 32.0625 33.03125 30.949219 35.753906 29.429688 C 35.597656 29.871094 35.539062 30.386719 35.265625 30.738281 C 34.796875 31.335938 34.242188 31.902344 33.636719 32.359375 C 31.179688 34.226562 29.578125 36.429688 29.089844 38.746094 C 31.476562 36.410156 32.695312 36.042969 34.246094 37.097656 C 32.988281 38.21875 31.671875 39.308594 30.457031 40.5 C 29.523438 41.410156 28.679688 42.417969 27.808594 43.390625 C 27.804688 43.34375 27.804688 43.289062 27.800781 43.242188 C 27.679688 43.4375 27.609375 43.578125 27.542969 43.6875 C 27.511719 43.722656 27.480469 43.761719 27.445312 43.796875 C 26.949219 44.34375 26.464844 44.773438 25.988281 45.089844 C 25.957031 45.109375 25.925781 45.132812 25.890625 45.152344 C 25.878906 45.160156 25.863281 45.167969 25.851562 45.175781 C 25.289062 45.519531 24.742188 45.714844 24.191406 45.75 C 24.171875 45.75 24.15625 45.753906 24.136719 45.753906 C 24.089844 45.753906 24.046875 45.753906 24 45.753906 C 23.953125 45.753906 23.910156 45.753906 23.863281 45.753906 C 23.84375 45.753906 23.828125 45.753906 23.808594 45.75 C 23.257812 45.714844 22.707031 45.519531 22.148438 45.175781 C 22.136719 45.167969 22.121094 45.160156 22.109375 45.152344 C 22.074219 45.132812 22.042969 45.109375 22.011719 45.089844 C 21.53125 44.773438 21.046875 44.34375 20.554688 43.796875 C 20.519531 43.761719 20.488281 43.722656 20.457031 43.6875 C 20.390625 43.578125 20.320312 43.4375 20.199219 43.242188 C 20.195312 43.292969 20.195312 43.34375 20.191406 43.390625 C 19.320312 42.417969 18.476562 41.414062 17.542969 40.5 C 16.328125 39.308594 15.011719 38.21875 13.753906 37.097656 C 15.304688 36.039062 16.523438 36.410156 18.910156 38.746094 C 18.421875 36.429688 16.820312 34.222656 14.363281 32.359375 C 13.757812 31.902344 13.203125 31.335938 12.734375 30.738281 C 12.460938 30.390625 12.402344 29.871094 12.246094 29.429688 C 14.96875 30.949219 17.875 32.0625 19.421875 35.15625 C 19.699219 33.003906 19.546875 31.226562 18.160156 29.738281 C 17.535156 29.066406 17.535156 28.265625 17.953125 27.5 C 18.265625 26.929688 18.734375 26.449219 19.070312 25.890625 C 19.570312 25.054688 20.128906 24.230469 20.449219 23.324219 C 20.945312 21.921875 20.523438 20.160156 19.703125 19.382812 C 19.535156 19.980469 19.363281 20.582031 19.171875 21.246094 C 18.773438 20.070312 18.496094 18.96875 18.035156 17.957031 C 17.5625 16.921875 16.832031 16.039062 15.683594 15.472656 C 15.527344 17.164062 15.375 18.699219 13.84375 19.773438 C 13.84375 19.519531 13.816406 19.398438 13.847656 19.296875 C 14.476562 17.269531 13.878906 15.597656 12.480469 14.066406 C 11.140625 12.59375 9.910156 11.023438 8.640625 9.484375 C 8.441406 9.242188 8.308594 8.945312 8.144531 8.671875 C 10.027344 10.136719 11.996094 11.273438 14.21875 12 C 12.910156 10.21875 12.441406 7.875 10.367188 6.4375 C 10.367188 6.945312 10.367188 7.300781 10.367188 7.878906 C 7.804688 5.664062 6.316406 2.972656 5.066406 0 C 4.839844 0.335938 4.710938 0.5 4.609375 0.675781 C 4.359375 1.113281 4.09375 1.542969 3.871094 2 C 2.054688 5.695312 1.605469 9.601562 2.128906 13.644531 C 2.519531 16.664062 3.453125 19.449219 5.804688 21.554688 C 6.4375 22.121094 7.15625 22.59375 7.71875 23.019531 C 6.480469 25.054688 5.148438 26.992188 4.074219 29.0625 C 3.015625 31.113281 2.214844 33.300781 1.242188 35.5625 C 3.011719 34.824219 4.542969 34.183594 6.078125 33.539062 C 6.167969 33.652344 6.257812 33.761719 6.351562 33.875 C 5.058594 36.121094 3.765625 38.367188 2.375 40.78125 C 3.765625 40.367188 4.992188 39.902344 6.257812 39.644531 C 7.671875 39.355469 9.140625 39.027344 10.554688 39.121094 C 13.296875 39.300781 15.414062 40.894531 17.34375 42.722656 C 18.421875 43.746094 19.464844 44.8125 20.597656 45.769531 C 21.574219 46.59375 22.722656 47.019531 24 47.015625 C 25.277344 47.019531 26.425781 46.59375 27.402344 45.769531 C 28.535156 44.8125 29.578125 43.746094 30.65625 42.722656 C 32.585938 40.894531 34.703125 39.300781 37.445312 39.121094 C 38.859375 39.027344 40.328125 39.355469 41.742188 39.644531 C 43.007812 39.902344 44.234375 40.367188 45.625 40.78125 C 44.234375 38.367188 42.941406 36.121094 41.648438 33.875 C 41.742188 33.761719 41.832031 33.652344 41.921875 33.539062 Z M 8.019531 18.226562 C 7.4375 17.984375 6.855469 17.742188 6.132812 17.449219 C 6.886719 18.949219 7.914062 20 9.144531 21.011719 C 8.726562 20.890625 8.285156 20.828125 7.898438 20.640625 C 5.894531 19.675781 4.867188 17.914062 4.316406 15.882812 C 3.460938 12.734375 3.429688 9.550781 4.203125 6.367188 C 4.25 6.167969 4.324219 5.972656 4.402344 5.78125 C 4.429688 5.703125 4.507812 5.644531 4.699219 5.40625 C 5.402344 9.652344 6.914062 13.410156 9.769531 16.554688 C 8.066406 16.175781 7.128906 14.886719 6.066406 13.496094 C 6.261719 15.371094 7.011719 16.785156 8.019531 18.226562 Z M 38.859375 21.011719 C 40.089844 20 41.117188 18.945312 41.867188 17.445312 C 41.144531 17.742188 40.5625 17.984375 39.980469 18.222656 C 40.992188 16.785156 41.742188 15.367188 41.933594 13.488281 C 40.878906 14.882812 39.9375 16.167969 38.234375 16.550781 C 41.089844 13.40625 42.601562 9.648438 43.304688 5.398438 C 43.496094 5.636719 43.570312 5.699219 43.601562 5.773438 C 43.679688 5.964844 43.75 6.160156 43.800781 6.363281 C 44.574219 9.542969 44.539062 12.730469 43.6875 15.875 C 43.136719 17.90625 42.109375 19.667969 40.105469 20.636719 C 39.71875 20.824219 39.273438 20.886719 38.859375 21.011719 Z M 38.859375 21.011719 " fill-opacity="1" fill-rule="nonzero"/></g><path fill="#7cff00" d="M 23.347656 42.9375 C 23.457031 42.980469 23.578125 43.011719 23.707031 43.027344 C 23.722656 43.03125 23.734375 43.03125 23.75 43.035156 C 23.78125 43.039062 23.8125 43.039062 23.839844 43.042969 C 23.867188 43.046875 23.890625 43.046875 23.917969 43.050781 C 23.945312 43.050781 23.96875 43.050781 23.996094 43.050781 C 24.023438 43.050781 24.046875 43.050781 24.078125 43.050781 C 24.101562 43.050781 24.125 43.046875 24.152344 43.042969 C 24.183594 43.039062 24.214844 43.039062 24.242188 43.035156 C 24.257812 43.03125 24.269531 43.03125 24.285156 43.027344 C 24.414062 43.011719 24.535156 42.980469 24.644531 42.9375 C 25.992188 42.414062 26.957031 40.882812 26.945312 39.4375 C 26.9375 38.675781 26.859375 38.449219 26.398438 38.386719 C 26.273438 38.355469 26.125 38.34375 25.941406 38.351562 C 25.628906 38.367188 25.308594 38.375 24.996094 38.378906 C 24.980469 38.378906 24.960938 38.378906 24.949219 38.378906 C 24.867188 38.378906 24.789062 38.378906 24.710938 38.382812 C 24.472656 38.386719 24.234375 38.386719 23.996094 38.386719 C 23.757812 38.386719 23.523438 38.386719 23.285156 38.382812 C 23.203125 38.382812 23.125 38.382812 23.046875 38.378906 C 23.03125 38.378906 23.011719 38.378906 22.996094 38.378906 C 22.683594 38.371094 22.367188 38.363281 22.054688 38.351562 C 21.875 38.34375 21.722656 38.355469 21.597656 38.386719 C 21.128906 38.449219 21.054688 38.679688 21.050781 39.4375 C 21.039062 40.882812 22.003906 42.417969 23.347656 42.9375 Z M 23.347656 42.9375 " fill-opacity="1" fill-rule="nonzero"/></svg>